<mxfile host="app.diagrams.net" modified="2023-05-14T13:14:47.426Z" agent="Mozilla/5.0 (Windows NT 10.0; Win64; x64) AppleWebKit/537.36 (KHTML, like Gecko) Chrome/113.0.0.0 Safari/537.36" etag="9OWpolJH9oWBzPC3_WYZ" version="21.3.0" type="device">
  <diagram name="Страница 1" id="XL5rrtHzSTrdF97cpJYN">
    <mxGraphModel dx="2074" dy="1148" grid="1" gridSize="10" guides="1" tooltips="1" connect="1" arrows="1" fold="1" page="1" pageScale="1" pageWidth="827" pageHeight="1169" math="0" shadow="0">
      <root>
        <mxCell id="0" />
        <mxCell id="1" parent="0" />
        <mxCell id="W-CgVmo85pA-Yc8D2W5Z-3" style="edgeStyle=orthogonalEdgeStyle;rounded=0;orthogonalLoop=1;jettySize=auto;html=1;entryX=0.5;entryY=0;entryDx=0;entryDy=0;" edge="1" parent="1" source="W-CgVmo85pA-Yc8D2W5Z-1" target="W-CgVmo85pA-Yc8D2W5Z-2">
          <mxGeometry relative="1" as="geometry" />
        </mxCell>
        <mxCell id="W-CgVmo85pA-Yc8D2W5Z-1" value="Начало&lt;br&gt;saveTree" style="ellipse;whiteSpace=wrap;html=1;" vertex="1" parent="1">
          <mxGeometry x="354" y="20" width="120" height="80" as="geometry" />
        </mxCell>
        <mxCell id="W-CgVmo85pA-Yc8D2W5Z-5" style="edgeStyle=orthogonalEdgeStyle;rounded=0;orthogonalLoop=1;jettySize=auto;html=1;entryX=0.5;entryY=0;entryDx=0;entryDy=0;" edge="1" parent="1" source="W-CgVmo85pA-Yc8D2W5Z-2" target="W-CgVmo85pA-Yc8D2W5Z-4">
          <mxGeometry relative="1" as="geometry" />
        </mxCell>
        <mxCell id="W-CgVmo85pA-Yc8D2W5Z-2" value="&lt;div style=&quot;font-size: 14px; line-height: 19px;&quot;&gt;&lt;span style=&quot;background-color: rgb(255, 255, 255);&quot;&gt;file = fopen(&quot;trainData.dat&quot;, &quot;wb&quot;)&lt;/span&gt;&lt;/div&gt;" style="rounded=0;whiteSpace=wrap;html=1;" vertex="1" parent="1">
          <mxGeometry x="354" y="130" width="120" height="60" as="geometry" />
        </mxCell>
        <mxCell id="W-CgVmo85pA-Yc8D2W5Z-7" style="edgeStyle=orthogonalEdgeStyle;rounded=0;orthogonalLoop=1;jettySize=auto;html=1;entryX=0.5;entryY=0;entryDx=0;entryDy=0;" edge="1" parent="1" source="W-CgVmo85pA-Yc8D2W5Z-4" target="W-CgVmo85pA-Yc8D2W5Z-6">
          <mxGeometry relative="1" as="geometry" />
        </mxCell>
        <mxCell id="W-CgVmo85pA-Yc8D2W5Z-12" value="TRUE" style="edgeStyle=orthogonalEdgeStyle;rounded=0;orthogonalLoop=1;jettySize=auto;html=1;" edge="1" parent="1" source="W-CgVmo85pA-Yc8D2W5Z-4">
          <mxGeometry x="-0.8365" relative="1" as="geometry">
            <mxPoint x="420" y="470" as="targetPoint" />
            <Array as="points">
              <mxPoint x="311" y="250" />
            </Array>
            <mxPoint as="offset" />
          </mxGeometry>
        </mxCell>
        <mxCell id="W-CgVmo85pA-Yc8D2W5Z-4" value="!file" style="rhombus;whiteSpace=wrap;html=1;" vertex="1" parent="1">
          <mxGeometry x="374" y="210" width="80" height="80" as="geometry" />
        </mxCell>
        <mxCell id="W-CgVmo85pA-Yc8D2W5Z-9" style="edgeStyle=orthogonalEdgeStyle;rounded=0;orthogonalLoop=1;jettySize=auto;html=1;" edge="1" parent="1" source="W-CgVmo85pA-Yc8D2W5Z-6" target="W-CgVmo85pA-Yc8D2W5Z-8">
          <mxGeometry relative="1" as="geometry" />
        </mxCell>
        <mxCell id="W-CgVmo85pA-Yc8D2W5Z-6" value="&lt;div style=&quot;font-size: 14px; line-height: 19px;&quot;&gt;&lt;span style=&quot;background-color: rgb(255, 255, 255);&quot;&gt;saveTrain(Node, file)&lt;/span&gt;&lt;/div&gt;" style="rounded=0;whiteSpace=wrap;html=1;" vertex="1" parent="1">
          <mxGeometry x="354" y="310" width="120" height="60" as="geometry" />
        </mxCell>
        <mxCell id="W-CgVmo85pA-Yc8D2W5Z-11" style="edgeStyle=orthogonalEdgeStyle;rounded=0;orthogonalLoop=1;jettySize=auto;html=1;entryX=0.5;entryY=0;entryDx=0;entryDy=0;" edge="1" parent="1" source="W-CgVmo85pA-Yc8D2W5Z-8" target="W-CgVmo85pA-Yc8D2W5Z-10">
          <mxGeometry relative="1" as="geometry" />
        </mxCell>
        <mxCell id="W-CgVmo85pA-Yc8D2W5Z-8" value="&lt;div style=&quot;font-size: 14px; line-height: 19px;&quot;&gt;&lt;span style=&quot;background-color: rgb(255, 255, 255);&quot;&gt;fclose(file)&lt;/span&gt;&lt;/div&gt;" style="rounded=0;whiteSpace=wrap;html=1;" vertex="1" parent="1">
          <mxGeometry x="354" y="390" width="120" height="60" as="geometry" />
        </mxCell>
        <mxCell id="W-CgVmo85pA-Yc8D2W5Z-10" value="Конец" style="ellipse;whiteSpace=wrap;html=1;" vertex="1" parent="1">
          <mxGeometry x="354" y="480" width="120" height="80" as="geometry" />
        </mxCell>
      </root>
    </mxGraphModel>
  </diagram>
</mxfile>
